<svg width="32" height="32" viewBox="0 0 32 32" fill="none" xmlns="http://www.w3.org/2000/svg">
  <!-- Book spine -->
  <line x1="16" y1="6" x2="16" y2="26" stroke="#1a1a1a" stroke-width="1.6"/>
  <!-- Left page -->
  <path d="M16 6 Q14 5 6 7 L6 25 Q14 23 16 24" stroke="#1a1a1a" stroke-width="1.3" fill="none"/>
  <!-- Right page -->
  <path d="M16 6 Q18 5 26 7 L26 25 Q18 23 16 24" stroke="#1a1a1a" stroke-width="1.3" fill="none"/>
  <!-- Island on right page -->
  <path d="M18.5 13 Q19.5 11 21 10.8 Q22.5 10.5 23.5 11.5 Q24.2 12.5 24 13.5 Q23 14.5 21.5 14.8 Q19.5 15 18.5 13 Z" stroke="#1a1a1a" stroke-width="0.8" fill="none"/>
  <!-- Pin dot -->
  <circle cx="21.5" cy="12.5" r="0.9" fill="#1B2A4A"/>
  <!-- Water lines -->
  <line x1="18" y1="16" x2="25" y2="16" stroke="#1a1a1a" stroke-width="0.4" opacity="0.15"/>
  <line x1="18.5" y1="17.5" x2="24.5" y2="17.5" stroke="#1a1a1a" stroke-width="0.4" opacity="0.1"/>
  <!-- Text lines on left page -->
  <line x1="8" y1="11" x2="14" y2="10" stroke="#1a1a1a" stroke-width="0.5" opacity="0.2"/>
  <line x1="8" y1="13.5" x2="14" y2="12.5" stroke="#1a1a1a" stroke-width="0.5" opacity="0.2"/>
  <line x1="8" y1="16" x2="13" y2="15" stroke="#1a1a1a" stroke-width="0.5" opacity="0.2"/>
</svg>
